<svg xmlns="http://www.w3.org/2000/svg" viewBox="0 0 48 48"><g data-name="Layer 2"><path fill="#faf3dd" stroke="#4d4d4d" stroke-linecap="round" stroke-linejoin="round" stroke-width="1.09" d="M41.81831,39.227c0,1.42328,1.197,3.3304,0,3.3304s-4.58186-1.11923-4.58186-2.54252,1.35991-3.7245,2.55694-3.7245S41.81831,37.80375,41.81831,39.227Z"/><path fill="#faf3dd" stroke="#4d4d4d" stroke-linecap="round" stroke-linejoin="round" d="M17.63327,34.7426c-2.41073-.00009-5.32336,3.98856-8.89238,3.79884a1.13877,1.13877,0,0,0-1.0517.72045,3.69735,3.69735,0,0,0,.027,3.15737,1.204,1.204,0,0,0,1.09569.70778h9.236a1.189,1.189,0,0,0,.95293-1.89917C17.78814,39.58076,17.63326,34.74263,17.63327,34.7426Z"/><path fill="#faf3dd" stroke="#4d4d4d" stroke-linecap="round" stroke-linejoin="round" d="M17.21487,22.17825c-.15455-.8556-7.15429,11.46151-6.45875,13.87022a2.3716,2.3716,0,0,0,2.66218,1.75187c1.02626-2.288,4.52032-3.7915,6.23372-6.79862Z"/><path fill="#faf3dd" stroke="#4d4d4d" stroke-linecap="round" stroke-linejoin="round" d="M38.21753,23.03763A33.534,33.534,0,0,0,23.55181,9.31443c.00788.00367.01483.00329.02271.00711-3.49476-3.595-8.881-4.64713-13.80371-4.34652-.57623.025-1.15246.07515-1.71607.15031a3.23486,3.23486,0,0,0-.50107.11269,2.556,2.556,0,0,0-1.21508.81423,2.70514,2.70514,0,0,0-.68892,1.8163V9.27146a2.57328,2.57328,0,0,0,.12531.67638,3.564,3.564,0,0,0,1.96661,2.09184c2.73305,1.06064,5.142,2.94246,6.94348,3.31494a20.392,20.392,0,0,1,.98548,5.17779c.23349,4.1378-.95559,6.20105-1.25261,10.02088a22.38192,22.38192,0,0,0,.4471,6.42207,7.77944,7.77944,0,0,0,7.63585,6.104H34.03753a7.61422,7.61422,0,0,0,6.65364-3.702l.03158-.05581C43.93379,33.60316,39.9547,26.24844,38.21753,23.03763Z"/><path fill="#666a86" stroke="#4d4d4d" stroke-linecap="round" stroke-linejoin="round" d="M5.64967,8.14408V7.86855a2.70514,2.70514,0,0,1,.68892-1.8163A2.556,2.556,0,0,1,7.55367,5.238a3.23486,3.23486,0,0,1,.50107-.11269C8.61835,5.05017,9.19458,5,9.77081,4.975,10.54742,7.17963,7.55367,7.41762,5.64967,8.14408Z"/><path fill="#faf3dd" stroke="#4d4d4d" stroke-linecap="round" stroke-linejoin="round" d="M17.56554,6.59274s2.537-2.91009,5.16088-1.15927S21.1907,9.493,21.1907,9.493"/><path fill="#faf3dd" d="M21.9468,18.182c-.25735-.84221-5.96494,12.83058-4.98,15.20158A2.69549,2.69549,0,0,0,19.83939,35.108c.75141-2.2522,5.14713-5.06919,6.49928-8.02923Z"/><path fill="none" stroke="#4d4d4d" stroke-linecap="round" stroke-linejoin="round" d="M21.9468,18.182c-.25735-.84221-5.96494,12.83058-4.98,15.20158A2.69549,2.69549,0,0,0,19.83939,35.108c.75141-2.2522,5.14713-5.06919,6.49928-8.02923"/><path fill="#faf3dd" stroke="#4d4d4d" stroke-linecap="round" stroke-linejoin="round" d="M32.92086,31.58827s-6.26217-.72092-8.07007.92477A10.56331,10.56331,0,0,0,22.6721,35.8121a3.35289,3.35289,0,0,1-3.50057,1.94169c-1.36512-.18633-2.42286-.48137-3.33116.3742a12.25174,12.25174,0,0,0-.15756,1.469,3.31994,3.31994,0,0,0,3.30758,3.48243h9.36467A6.61766,6.61766,0,0,0,34.382,39.19482l.65447-1.44319"/><line x1="9.531" x2="9.699" y1="40.537" y2="41.122" fill="none" stroke="#4d4d4d" stroke-linecap="round" stroke-linejoin="round"/><path fill="#e76f51" stroke="#4d4d4d" stroke-linecap="round" stroke-linejoin="round" stroke-width="1.09" d="M23.85725,16.193a11.18022,11.18022,0,0,1,0,3.62362c-.26287,1.57964-.74134,2.2923-.40262,2.75126.32209.43644,1.38186.64179,4.8986-.73813-.00316-.70385-.07093-6.98141-2.01312-7.38147C25.98719,14.37561,25.18749,14.4177,23.85725,16.193Z"/><path fill="#e76f51" stroke="#4d4d4d" stroke-linecap="round" stroke-linejoin="round" stroke-width="1.09" d="M22.70385,16.14831a10.26639,10.26639,0,0,1,2.14733,1.87892,9.04922,9.04922,0,0,1,2.34864,4.8315c.11115,1.00121-.07516,1.33267.26842,1.7447.77953.93481,3.10166.86338,4.16045-.33552.20149-.22813.78618-.98284.53684-3.01969-.38975-3.1838-2.63863-8.04068-5.771-7.85117C24.63939,13.50324,23.34214,15.14943,22.70385,16.14831Z"/><path fill="#e76f51" stroke="#4d4d4d" stroke-linecap="round" stroke-linejoin="round" d="M14.24345,16.02458a1.866,1.866,0,0,0-.26343.882c.00408.49421.26211.67776.47032,1.15437.48352,1.10681-.17908,1.78564.35556,2.67878a2.32964,2.32964,0,0,0,.62979.637c.849.58028,2.57943.21063,8.90807-3.82494.5121-.32655,4.21608-2.72534,4.73422-4.86366a1.60958,1.60958,0,0,0-.04982-1.08124c-.31932-.674-1.11444-.72514-2.26866-1.20168-1.723-.71136-1.64336-1.296-2.41574-1.35886-1.55092-.1263-1.70607,2.24436-4.27789,3.92559C17.99629,14.32491,14.94678,14.84894,14.24345,16.02458Z"/><line x1="14.726" x2="15.036" y1="6.75" y2="7.017" fill="none" stroke="#4d4d4d" stroke-linecap="round" stroke-linejoin="round"/></g></svg>